# xmcd
#
# Track frame offsets:
#	150
#	6417
#	25511
#	42439
#	64364
#	88820
#	109846
#	126939
#
# Disc length: 2025 seconds
#
# Revision: 1
# Processed by: cddbd v1.5.2PL0 Copyright (c) Steve Scherf et al.
# Submitted via: audiograbber 1.83.01
#
DISCID=6a07e708
DTITLE=Andreas Kümmert - smilin´ in circles
DYEAR=1900
DGENRE=Blues
TTITLE0=intro
TTITLE1=smilin´in circles
TTITLE2=broken crutch
TTITLE3=blinkin´ conversation
TTITLE4=far too long
TTITLE5=moon mood
TTITLE6=broken crutch (alt)
TTITLE7=tombstone romance
EXTD=
EXTT0=
EXTT1=
EXTT2=
EXTT3=
EXTT4=
EXTT5=
EXTT6=
EXTT7=
PLAYORDER=
